<svg width="257" height="233" viewBox="0 0 257 233" fill="none" xmlns="http://www.w3.org/2000/svg">
<path d="M247.928 117.5C247.928 188 194.347 225 128.251 225C62.1558 225 10.94 187.5 8.10183 121C5.26366 54.5 62.1558 8 128.251 8C194.347 8 247.928 47 247.928 117.5Z" fill="#C9EBFF"/>
<circle cx="152.5" cy="44.5" r="8.5" fill="white"/>
<path d="M142 120L152.405 50L165 120" stroke="#4A5487" stroke-width="5" stroke-linecap="round" stroke-linejoin="round"/>
<path d="M147 93L161 104" stroke="#4A5487" stroke-width="5" stroke-linecap="round" stroke-linejoin="round"/>
<path d="M160 92.5L145 104" stroke="#4A5487" stroke-width="5" stroke-linecap="round" stroke-linejoin="round"/>
<path d="M148 81L159 87" stroke="#4A5487" stroke-width="5" stroke-linecap="round" stroke-linejoin="round"/>
<path d="M158 81L147 87" stroke="#4A5487" stroke-width="5" stroke-linecap="round" stroke-linejoin="round"/>
<circle cx="152.5" cy="44.5" r="5.5" fill="#4A5487"/>
<path d="M121 29.1868L128.596 36.0439L133.271 31.8019L139.57 36.1981" stroke="white" stroke-width="5" stroke-linecap="round" stroke-linejoin="round"/>
<path d="M77.6807 70.1937C93.3768 70.1937 91.4584 86.3803 103.721 96.1904C115.984 106 121.87 104.529 127.756 109.924C133.642 115.32 128.737 128.564 147.376 130.526C139.528 138.374 134.132 135.594 132.661 132.978L130.655 138.374L83.6422 141.5C80.0844 141.5 79.1523 132.978 79.1523 124.64C79.1523 116.301 83.5668 96.1904 79.1523 90.7948C59.0853 93.7379 61.9846 70.1937 77.6807 70.1937Z" fill="#AAE8BB" stroke="#4A5487" stroke-width="5"/>
<path d="M89.4963 127.092L92.9299 128.563L94.4014 138.373" stroke="#4A5487" stroke-width="5" stroke-linecap="round"/>
<path d="M78.0496 91.1662C78.0496 91.1662 81.3119 90.7001 83.1762 89.3019" stroke="#4A5487" stroke-width="5" stroke-linecap="round"/>
<circle cx="76.2529" cy="79.0228" r="1.96201" fill="#4A5487"/>
<path d="M116.965 128.073C115.984 131.343 114.61 134.94 115.003 138.864" stroke="#4A5487" stroke-width="5" stroke-linecap="round"/>
<path d="M101.799 135.993C80.1729 128.729 59.9204 165.767 72.5543 176.217C85.1883 186.668 107.266 180.681 129.323 180.681C136.255 180.681 144.024 180.841 151.661 180.894C176.335 181.157 192.156 182.188 193.378 172.013C198.501 156.4 170.581 121.489 160.82 118.476C131.066 109.292 133.975 146.8 101.799 135.993Z" fill="#F0D7A6"/>
<path d="M103.5 136.5C81.9101 130.096 68.5 149.61 76.3423 155.339C84.1846 161.068 91.5 152.5 118.5 162.5C145.5 172.5 155.876 150.453 163.5 150.5C187.5 154 192.82 152.229 185.16 142.114C177.5 132 170.765 120.946 161.021 118.289C131.316 110.192 135.622 146.028 103.5 136.5Z" fill="#B6D577"/>
<path d="M151.661 180.894C144.024 180.841 136.255 180.681 129.323 180.681C107.266 180.681 85.1883 186.668 72.5543 176.217C59.9204 165.767 80.1729 128.729 101.799 135.993C133.975 146.8 131.066 109.292 160.82 118.476C170.581 121.489 198.501 156.4 193.378 172.013" stroke="#4A5487" stroke-width="5" stroke-linecap="round"/>
<path d="M176.193 177.5C168.704 176.564 156.535 189.83 158.407 194.511C160.279 199.192 163.088 202 176.193 202C189.299 202 193.98 198.256 193.044 192.639C192.108 187.022 183.682 178.436 176.193 177.5Z" fill="#F6E1B8" stroke="#4A5487" stroke-width="5"/>
<path d="M79.9999 159.366C85.2843 156.256 96.7338 153.145 104.66 157.292C112.587 161.439 124.037 166.622 139.89 162.475C155.743 158.329 155.743 144.851 176 152.108" stroke="#4A5487" stroke-width="5" stroke-linecap="round"/>
</svg>
